<svg id="Camada_1" data-name="Camada 1" xmlns="http://www.w3.org/2000/svg" viewBox="0 0 1080 1080"><defs><style>.cls-1,.cls-2{fill:#110f0f;fill-rule:evenodd;}.cls-2{stroke:#110f0f;stroke-miterlimit:10;stroke-width:30px;}</style></defs><path class="cls-1" d="M528,383.94H496.74a4.8,4.8,0,0,0-4.8,4.8v35.77H528a4.8,4.8,0,0,0,4.8-4.8v-31A4.8,4.8,0,0,0,528,383.94Z"/><path class="cls-1" d="M528,435.07H496.74a4.8,4.8,0,0,0-4.8,4.81v35.76H528a4.8,4.8,0,0,0,4.8-4.8v-31A4.8,4.8,0,0,0,528,435.07Z"/><path class="cls-1" d="M579.58,383.94H548.29a4.8,4.8,0,0,0-4.8,4.8v35.77h36.09a4.8,4.8,0,0,0,4.8-4.8v-31A4.8,4.8,0,0,0,579.58,383.94Z"/><path class="cls-1" d="M579.58,435.07H548.29a4.8,4.8,0,0,0-4.8,4.81v35.76h36.09a4.8,4.8,0,0,0,4.8-4.8v-31A4.8,4.8,0,0,0,579.58,435.07Z"/><path class="cls-2" d="M913.82,467.15,552.54,162.59a19.45,19.45,0,0,0-25.08,0L166.18,467.12a9.7,9.7,0,0,0-3.46,7.45l.09,63.22a12.16,12.16,0,0,0,20,9.31L527.5,258.48a19.45,19.45,0,0,1,25,0L725.33,403.21l36.14,30.26c-181.3,150.47-378,321.22-561.54,471.27A9.72,9.72,0,0,0,206.09,922L881,921.92a12.16,12.16,0,0,0,9.21-20.1L848.2,853a12.17,12.17,0,0,0-9.21-4.22H406.16a9.7,9.7,0,0,1-6.25-17.12c129-108.57,271.5-227.19,400.6-335.5a29.18,29.18,0,0,1,37.71.17l58.92,50.34a12.16,12.16,0,0,0,20.06-9.23l.08-62.88A9.7,9.7,0,0,0,913.82,467.15Z"/></svg>